<?xml version="1.0" encoding="utf-8"?>
<!-- Generator: Adobe Illustrator 18.1.1, SVG Export Plug-In . SVG Version: 6.00 Build 0)  -->
<svg version="1.1" id="Layer_1" xmlns="http://www.w3.org/2000/svg" xmlns:xlink="http://www.w3.org/1999/xlink" x="0px" y="0px"
	 width="463.7px" height="228.7px" viewBox="0 0 463.7 228.7" enable-background="new 0 0 463.7 228.7" xml:space="preserve">
<g>
	<path fill="#EE5598" d="M248.8,67.9c1.3-1.4,2.3-2.9,3.5-4.3c5.2-5.7,11.6-9.2,19.3-10.2c4.5-0.6,9-0.4,13.4,0.9
		c7.9,2.2,12.6,7.7,14.9,15.3c1.6,5,2.2,10.2,2.2,15.5c0,15.8,0,31.5,0,47.3c0,1-0.3,1.4-1.3,1.6c-1.8,0.4-3.5,0.9-5.2,1.4
		c-0.7,0.2-0.9,0-0.8-0.6c0-0.3,0-0.6,0-0.8c0-15.9,0-31.8,0-47.6c0-4-0.3-8-1.4-11.9c-2.7-9.5-8.9-14.1-18.9-14.4
		c-12.3-0.3-20.6,8.6-23.8,17.6c-1.4,3.9-1.9,7.8-1.9,11.9c0,14.2,0,28.5,0,42.7c0,1-0.2,1.5-1.3,1.7c-1.6,0.3-3.2,0.8-4.7,1.3
		c-0.9,0.3-1.1,0-1-0.8c0-0.1,0-0.2,0-0.4c0-38.8,0-77.7,0-116.5c0-1.1,0.3-1.6,1.3-1.8c1.7-0.4,3.3-1,4.9-1.6
		c0.6-0.2,0.8-0.1,0.8,0.5c0,0.3,0,0.6,0,1c0,17,0,34,0,51C248.8,67.1,248.8,67.5,248.8,67.9z"/>
	<path fill="#EE5598" d="M132.8,90.8c-0.2-7,0.4-13.9-0.3-20.7c-0.6-5.9-3.6-8.9-9.4-10c-4.6-0.8-9.3-0.4-14-0.5
		c-4.8-0.1-9.5,0.1-14.5,0.5c0.6-2.2,1.3-4.3,1.9-6.4c0.1-0.5,0.6-0.4,0.9-0.4c2.2-0.3,4.4-0.2,6.6-0.2c6.1,0,12.2,0,18.4,0
		c2.6,0,5.1,0.5,7.6,1.1c4.8,1.2,7.7,4.3,8.9,9.1c0.9,3.5,1.1,7,1.1,10.6c0,14.8,0,29.7,0,44.5c0,2.6-0.5,5.2-1.1,7.8
		c-1.2,4.9-4.3,7.8-9.1,9c-4.6,1.1-9.2,1.3-13.9,1c-2.4-0.1-4.7,0-7.1-0.1c-12.2-0.4-22.5-9-24.8-21c-1.6-8.2-0.9-16,4-23.1
		C92.5,85,99.3,80.8,107.9,80c5.4-0.5,10.6,0,15.5,2.4c3.4,1.7,6.1,4.2,8.2,7.3c0.2,0.3,0.4,0.6,0.6,0.9
		C132.4,90.7,132.5,90.7,132.8,90.8z M132.2,111c0-1.2,0-2.3,0-3.5c-0.1-4.6-1.5-8.8-4.4-12.4c-6.6-8.6-18.2-11-27.3-5.4
		c-7.4,4.6-10.7,11.5-10.1,20.2c0.6,8.7,6.2,16,14.6,18.7c5.7,1.8,11.6,1.8,17.5,0.7c5-0.9,7.9-4,9-8.9
		C132.1,117.3,132.2,114.1,132.2,111z"/>
	<path fill="#EE5598" d="M341,100.7c-0.5-2.2-1-4.3-1.5-6.4c-0.2-0.7,0.4-0.8,0.8-1c5.8-3.5,11.6-7,17.3-10.5
		c7.8-4.7,15.6-9.4,23.4-14.1c0.8-0.5,0.9-0.8,0.2-1.4c-4.9-4.7-10.7-7.4-17.5-7.9c-8-0.7-15.5,0.9-22.3,5.4
		c-8.6,5.8-14.1,13.8-15.5,24.2c-1.8,13.2,2.6,24.1,12.7,32.8c7.6,6.5,16.6,8.4,26.3,7.4c7-0.7,13.3-3.5,19.2-7.3
		c0.3-0.2,0.7-0.4,1.2-0.8c0,1.7,0,3.3,0,4.9c0,3,0,3-2.6,4.5c-8,4.6-16.6,6.6-25.9,6c-17.9-1.2-33.3-14.2-37-31.8
		c-2.3-10.9-1.5-21.6,4.2-31.5c6.8-11.7,16.8-18.9,30.3-20.7c8.3-1.1,16.3-0.2,23.8,3.7c5.9,3.1,10.6,7.5,15,12.4
		c0.7,0.7-0.2,0.8-0.5,1c-4.2,2.5-8.3,5.1-12.5,7.6c-12.7,7.6-25.3,15.3-38,22.9C341.9,100.2,341.5,100.4,341,100.7z"/>
	<path fill="#EE5498" d="M25.6,99.2c0,1.4,0,2.5,0,3.6c0,9.9,0,19.8,0,29.6c0,0.8-0.2,1.2-1,1.4c-1.8,0.4-3.6,0.9-5.4,1.5
		c-0.6,0.2-0.8,0-0.7-0.6c0-0.2,0-0.5,0-0.7c0-38.8,0-77.6,0-116.4c0-1.2,0.4-1.6,1.4-1.9c1.9-0.5,3.8-1.1,5.8-1.8
		c0,27.4,0,54.6,0,82.2c1.6-1.7,3-3.1,4.3-4.6c5.2-5.6,10.4-11.1,15.5-16.7c6-6.4,12-12.8,18-19.3c0.6-0.6,0.9-0.6,1.5,0
		c1,1,2,2,3.1,2.9c0.7,0.6,0.6,1,0,1.6c-2.1,2.2-4.2,4.5-6.3,6.7C52.5,76.7,43.3,86.6,34,96.4c-0.6,0.6-0.6,0.9,0.1,1.5
		c9.2,8.4,18.3,16.8,27.5,25.2c2.7,2.5,5.4,4.9,8.1,7.4c0.5,0.5,0.6,0.8,0.1,1.3c-1.2,1.2-2.4,2.4-3.6,3.7c-0.5,0.5-0.8,0.5-1.3,0
		c-9.7-9-19.5-18-29.2-27C32.3,105.4,29.1,102.4,25.6,99.2z"/>
	<path fill="#EE5598" d="M224.6,121c0.4,2.2,0.8,4.2,1.2,6.2c0.1,0.8-0.6,1-1,1.3c-4.5,3.3-9.5,5.6-14.9,6.8
		c-10.1,2.2-20,1.6-29.3-3.3c-12.7-6.8-20.6-17.3-22.5-31.7c-1.5-11.8,0.9-22.7,8.4-32.1c7-8.8,15.9-14.5,27.3-15.8
		c10.2-1.2,20.2,0,29.5,4.6c2,1,2,1,1.6,3.2c-0.3,1.3-0.5,2.6-0.8,3.9c-0.3,1.4-0.3,1.4-1.6,0.8c-3.5-1.8-7.1-3.4-11-4.3
		c-8.9-2-17.8-2.4-26.3,1.7C174.6,67.4,168,75.8,166,87.6c-1.4,8.1-0.6,16.1,3.4,23.4c5.5,10.2,13.9,16.6,25.6,18.1
		c10.3,1.3,19.6-1.6,28.2-7.1C223.6,121.6,224,121.3,224.6,121z"/>
	<path fill="#EE5699" d="M411.5,64.7c0-15.6,0-31.1,0-46.7c0-1,0.3-1.4,1.2-1.6c1.7-0.4,3.4-0.8,5.1-1.4c1-0.3,1.1,0,1.1,0.9
		c0,12.4,0,24.8,0,37.2c0,2-0.2,1.7,1.7,1.7c6.9,0,13.8,0,20.6,0c1,0,1.3,0.3,1.2,1.3c-0.1,1.5-0.1,3,0,4.6c0,0.9-0.3,1.1-1.2,1.1
		c-7,0-14,0-21-0.1c-1.3,0-1.5,0.4-1.5,1.5c0,15,0,29.9,0,44.9c0,4.2,0.2,8.3,1.5,12.3c1.4,4.6,4.5,7,9.3,7.6c3.7,0.4,7.3,0,11-0.7
		c0.9-0.2,1.4-0.2,1.2,1c-0.4,1.6-0.5,3.2-0.8,4.8c-0.1,0.5-0.3,0.8-0.8,0.9c-6.5,1.6-12.9,1.7-19.1-1.1c-4.5-2-6.7-5.8-7.9-10.4
		c-1.3-4.7-1.7-9.6-1.7-14.5C411.5,93.7,411.5,79.2,411.5,64.7z"/>
	<path fill="#EE5799" d="M246.9,183.1c1.7-1.5,3.2-2.8,4.9-3.9c10.7-6.7,24.7-0.9,27.5,11.5c1,4.6,1,9.1-0.4,13.6
		c-2.5,8.2-8.2,12.9-16.6,14.5c-6.6,1.2-12.9,0-19.1-2.4c-0.7-0.3-0.8-0.8-0.8-1.4c0-5.2,0-10.4,0-15.6c0-14,0-27.9,0-41.9
		c0-1.1,0.2-1.5,1.4-1.4c1,0.1,2.3-0.4,2.9,0.2c0.7,0.7,0.2,2,0.2,3c0,7.4,0,14.9,0,22.3C246.9,182,246.9,182.4,246.9,183.1z
		 M256.5,214.7c5.4,0.1,9.9-1.4,13.5-5.1c5.3-5.4,6.3-11.9,4.3-18.9c-2.2-8.1-9.2-12.2-17.4-10c-4.1,1.1-7,4.1-9.8,7.1
		c-0.3,0.3-0.2,0.7-0.2,1.1c0,7.6,0,15.3,0,22.9c0,0.7,0.2,1,0.9,1.3C250.7,214.2,253.7,214.8,256.5,214.7z"/>
	<path fill="#EE5498" d="M364.7,184c1.4-1.6,2.8-3.1,4.3-4.4c3-2.5,6.5-3.2,10.2-3c5.9,0.3,10.3,3,12.8,8.5c1,2.3,1.5,4.8,1.5,7.3
		c0,8.2,0,16.5,0,24.7c0,0.9-0.2,1.3-1.1,1.2c-1.1-0.1-2.4,0.5-3.1-0.3c-0.6-0.6-0.2-2-0.2-3c0-6.9,0-13.8,0-20.6
		c0-2.1-0.3-4.1-0.9-6.1c-1.7-5.7-5.9-7.5-11-7.4c-5.9,0.2-9.4,3.9-12.3,8.4c-0.3,0.4-0.2,0.9-0.2,1.4c0,8.8,0,17.6,0,26.4
		c0,1-0.2,1.4-1.2,1.2c-1-0.2-2.4,0.5-3.1-0.3c-0.6-0.7-0.2-2-0.2-3c0-12.1,0-24.1,0-36.2c0-1.1,0.2-1.6,1.4-1.5
		c1,0.1,2.3-0.4,2.9,0.2c0.6,0.6,0.2,1.9,0.2,2.9C364.7,181.6,364.7,182.8,364.7,184z"/>
	<path fill="#EE5699" d="M419.2,211.1c2.3,1.1,4.4,2.1,6.7,2.8c3,0.9,6.1,1.3,9.2,0.6c3.2-0.7,5.1-2.8,5.6-6
		c0.2-1.6-0.4-2.8-1.4-3.9c-1.5-1.7-3.5-2.8-5.5-3.8c-2.1-1-4.3-1.9-6.4-2.9c-2.2-1-4.2-2.4-5.7-4.3c-3.3-4-2.7-9.9,1.4-13.4
		c4.9-4.2,10.4-4.4,16.2-2.3c0.3,0.1,0.7,0.3,1,0.4c3.6,1.5,4.1,2.3,3.3,6.5c-2-1.2-4.1-2.4-6.3-3.2c-3.5-1.2-7-1.4-10.4,0.7
		c-0.9,0.6-1.6,1.3-2.2,2.2c-1.4,2.1-1.2,4.4,0.6,6.2c2.5,2.6,5.8,3.9,9,5.3c1.9,0.8,3.7,1.7,5.4,2.8c4,2.7,5.9,6.3,5.1,11
		c-0.8,4.6-4,7.3-8.2,8.7c-6,1.9-11.6,0.3-16.9-2.7c-0.4-0.2-0.5-0.5-0.5-0.9C419.2,213.6,419.2,212.4,419.2,211.1z"/>
	<path fill="#EE5498" d="M304.9,187.3c0-10,0-19.9,0-29.9c0-1,0.2-1.4,1.3-1.3c3.1,0.1,3.1,0,3.1,3.1c0,19.2,0,38.4,0,57.6
		c0,1.2-0.2,1.6-1.5,1.5c-2.9-0.1-2.9,0-2.9-2.9C304.9,206,304.9,196.7,304.9,187.3z"/>
	<path fill="#EE5799" d="M338.1,177.6c-1.7,1.5-3.3,2.9-5,4.4c-5.5,4.8-11,9.6-16.6,14.4c-0.6,0.5-0.3,0.7,0.1,1.1
		c5.3,4.4,10.6,8.8,16,13.2c3,2.5,5.9,4.9,9.1,7.5c-2,0.3-3.8,0.3-5.7,0.2c-0.4,0-0.6-0.3-0.9-0.5c-8.2-6.8-16.3-13.6-24.5-20.4
		c-0.6-0.5-0.7-0.7,0-1.3c7.2-6.1,14.3-12.3,21.5-18.4c0.2-0.2,0.5-0.4,0.8-0.4c1.7,0,3.5,0,5.2,0
		C338,177.4,338.1,177.5,338.1,177.6z"/>
	<path fill="#EE5799" d="M344.3,197.8c0-6.5,0-13,0-19.4c0-0.9,0.2-1.2,1.1-1.1c1.1,0.1,2.4-0.4,3.1,0.2c0.7,0.7,0.2,2,0.2,3.1
		c0,12.1,0,24.2,0,36.3c0,1.2-0.3,1.6-1.5,1.4c-1-0.1-2.3,0.4-2.9-0.2c-0.5-0.6-0.2-1.8-0.2-2.8
		C344.3,209.5,344.3,203.7,344.3,197.8z"/>
	<path fill="#EE5799" d="M289.2,197.9c0-6.5,0-13,0-19.4c0-0.9,0.2-1.3,1.1-1.2c1.1,0.1,2.6-0.5,3.2,0.3c0.5,0.6,0.2,2.1,0.2,3.1
		c0,12.1,0,24.1,0,36.2c0,1.1-0.2,1.6-1.4,1.4c-1-0.1-2.3,0.4-3-0.3c-0.6-0.6-0.2-1.9-0.2-2.9C289.1,209.4,289.2,203.6,289.2,197.9z
		"/>
	<path fill="#EE5498" d="M405.3,197.9c0-6.5,0-12.9,0-19.4c0-0.9,0.2-1.3,1.1-1.1c0.1,0,0.2,0,0.2,0c1,0.1,2.3-0.4,2.8,0.2
		c0.5,0.6,0.2,1.9,0.2,2.9c0,12.2,0,24.4,0,36.6c0,1-0.2,1.3-1.2,1.3c-3.1-0.1-3.2,0-3.2-3.2C405.3,209.4,405.3,203.6,405.3,197.9z"
		/>
	<path fill="#EE5799" d="M434.8,31.6c4.7,0,8.3,3.6,8.3,8.1c0,4.3-3.7,7.9-8.2,7.9c-4.7,0-8.5-3.6-8.4-8.1
		C426.6,35.1,430.3,31.6,434.8,31.6z M434.8,33c-3.8,0-6.7,2.9-6.7,6.6c0,3.6,3.1,6.6,6.8,6.6c3.7,0,6.8-3.1,6.8-6.6
		C441.7,36,438.5,33,434.8,33z"/>
	<path fill="#EE5799" d="M348.8,160c0,0.1,0,0.2,0,0.4c0,3.7,0,3.7-3.8,3.4c-0.5,0-0.7-0.1-0.7-0.7c0-2.1,0-4.1,0-6.2
		c0-0.5,0.2-0.7,0.7-0.7c1,0,2.1,0,3.1,0c0.5,0,0.7,0.2,0.7,0.7C348.8,157.9,348.8,158.9,348.8,160z"/>
	<path fill="#EE5799" d="M293.7,159.9c0,1,0,2,0,3c0,0.6-0.2,0.9-0.8,0.8c0,0-0.1,0-0.1,0c-3.6,0.1-3.6,0.1-3.6-3.4
		c0-1.1,0-2.2,0-3.2c0-0.7,0.2-0.9,0.9-0.9c3.6-0.1,3.6-0.2,3.6,3.5C293.7,159.7,293.7,159.8,293.7,159.9z"/>
	<path fill="#EE5598" d="M405.3,159.8c0-1,0-2,0-3c0-0.5,0.2-0.7,0.7-0.7c1,0,2,0,3,0c0.5,0,0.7,0.2,0.7,0.7c0,2,0,4.1,0,6.1
		c0,0.6-0.2,0.8-0.8,0.8c0,0-0.1,0-0.1,0c-1.1-0.2-2.7,0.6-3.3-0.4C404.9,162.5,405.3,161,405.3,159.8
		C405.3,159.8,405.3,159.8,405.3,159.8z"/>
	<path fill="#FEFDFE" d="M434.8,33c3.7,0,6.9,3,6.9,6.5c0,3.6-3.1,6.6-6.8,6.6c-3.7,0-6.8-3-6.8-6.6C428.1,35.9,431,33,434.8,33z
		 M436,40.3c1.8-0.9,2.4-1.9,2.1-3c-0.3-1.2-1.4-1.8-3.1-1.8c-0.9,0-1.8,0-2.8,0c-0.7,0-1,0.2-1,0.9c0,2.3,0.1,4.5-0.2,6.8
		c-0.1,0.5,0.1,0.8,0.7,0.9c0.6,0,0.9-0.2,0.9-0.8c0-0.5,0-1,0-1.4c0.1-0.5-0.3-1.2,0.4-1.3c0.7-0.1,1.4-0.1,1.9,0.5
		c0.5,0.6,0.9,1.3,1.3,2c0.5,1.1,1.2,1.3,2.3,0.9C437.8,42.6,437.1,41.4,436,40.3z"/>
	<path fill="#EE5799" d="M436,40.3c1.1,1.1,1.8,2.3,2.4,3.6c-1.1,0.4-1.8,0.1-2.3-0.9c-0.3-0.7-0.8-1.4-1.3-2
		c-0.5-0.6-1.2-0.7-1.9-0.5c-0.7,0.2-0.3,0.9-0.4,1.3c-0.1,0.5,0,1,0,1.4c0,0.6-0.3,0.8-0.9,0.8c-0.6,0-0.7-0.3-0.7-0.9
		c0.2-2.3,0.1-4.5,0.2-6.8c0-0.7,0.2-1,1-0.9c0.9,0.1,1.8,0,2.8,0c1.8,0,2.8,0.6,3.1,1.8C438.4,38.4,437.8,39.3,436,40.3z
		 M434.1,36.6c-0.4,0.2-1.1-0.4-1.3,0.4c-0.4,1.5,0,2.1,1.6,2.1c0.4,0,0.9-0.1,1.3-0.2c0.5-0.1,0.8-0.5,0.9-1c0-0.6-0.2-0.9-0.7-1.1
		C435.3,36.5,434.7,36.6,434.1,36.6z"/>
	<path fill="#FEFDFE" d="M434.1,36.6c0.6,0,1.2,0,1.7,0.2c0.5,0.2,0.7,0.6,0.7,1.1c0,0.6-0.3,0.9-0.9,1c-0.4,0.1-0.9,0.2-1.3,0.2
		c-1.6,0-2-0.6-1.6-2.1C433,36.2,433.7,36.8,434.1,36.6z"/>
</g>
</svg>
